<svg xmlns="http://www.w3.org/2000/svg" width="32" height="32" viewBox="0 0 32 32">
  <defs>
    <style>
      .cls-1 {
        fill: #7d2280;
      }

      .cls-2, .cls-3 {
        fill: #fff;
        fill-rule: evenodd;
      }

      .cls-2 {
        opacity: 0.65;
      }

      .cls-3 {
        opacity: 0.9;
      }
    </style>
  </defs>
  <rect id="paper" class="cls-1" width="32" height="32" rx="10" ry="10"/>
  <path id="b" class="cls-2" d="M20.737,24.551a1.968,1.968,0,0,0,.076-1.436L20.621,22.7,17.9,17.979H10.828L8.138,14.233a1.7,1.7,0,0,1,.08-1.607V12.611L11.27,7.379h0a1.968,1.968,0,0,0-.139,1.57l0.191,0.414,2.722,4.613,7.072-.009,2.4,3.149a2.2,2.2,0,0,1,.208,2.071l-0.267.46Zm-0.073.126,0.073-.126c-0.02.045-.04,0.09-0.064,0.133Z"/>
  <path id="a" class="cls-3" d="M13.3,8.092l0-.006c-0.013-.018-0.028-0.035-0.039-0.055a0.692,0.692,0,0,1,.253-0.945,0.7,0.7,0,0,1,.325-0.1v0l10.611-.007,0,0a0.684,0.684,0,0,1,.316.089,0.671,0.671,0,0,1,.167.945c-0.006.011-.015,0.02-0.021,0.03l0,0L22.553,12H15.642ZM18.5,23.9l0,0.006c0.013,0.018.028,0.035,0.039,0.055a0.692,0.692,0,0,1-.253.945,0.705,0.705,0,0,1-.325.1v0L7.346,25l0,0A0.684,0.684,0,0,1,7.029,24.9a0.67,0.67,0,0,1-.167-0.945c0.006-.011.015-0.019,0.022-0.03l0,0L9.33,19.994h6.911Z"/>
</svg>
